<?xml version="1.0" encoding="UTF-8"?>
<!DOCTYPE svg PUBLIC "-//W3C//DTD SVG 1.1//EN" "http://www.w3.org/Graphics/SVG/1.1/DTD/svg11.dtd">
<svg xmlns="http://www.w3.org/2000/svg" version="1.1" width="147px" height="39px" style="shape-rendering:geometricPrecision; text-rendering:geometricPrecision; image-rendering:optimizeQuality; fill-rule:evenodd; clip-rule:evenodd" xmlns:xlink="http://www.w3.org/1999/xlink">
<g><path style="opacity:0.876" fill="#fcb42d" d="M 8.5,-0.5 C 12.5,-0.5 16.5,-0.5 20.5,-0.5C 22.4061,0.482403 24.4061,1.4824 26.5,2.5C 24.3119,5.52182 21.6452,8.02182 18.5,10C 21.1667,10.6667 23.8333,10.6667 26.5,10C 28.164,6.8638 30.8307,5.69713 34.5,6.5C 36.617,15.9886 32.9504,20.322 23.5,19.5C 23.5,18.1667 23.5,16.8333 23.5,15.5C 25.5273,15.6621 27.5273,15.4955 29.5,15C 30.4506,14.2825 30.6172,13.4491 30,12.5C 22.9133,13.3149 15.7466,13.8149 8.5,14C 10.5535,15.0803 12.7202,15.9136 15,16.5C 15.1735,20.5408 15.6735,24.5408 16.5,28.5C 18.3159,27.1851 19.9825,25.6851 21.5,24C 28.624,23.8384 35.624,23.0051 42.5,21.5C 42.5,22.8333 42.5,24.1667 42.5,25.5C 39.7274,29.7635 35.8941,32.7635 31,34.5C 30.5,34.1667 30,33.8333 29.5,33.5C 30.7472,31.677 31.4139,29.677 31.5,27.5C 30.5,27.5 29.5,27.5 28.5,27.5C 28.456,33.312 25.7894,36.9786 20.5,38.5C 17.5,38.5 14.5,38.5 11.5,38.5C 9.13181,37.217 6.96514,35.5503 5,33.5C 2.84209,28.8413 1.00876,24.1746 -0.5,19.5C -0.5,15.1667 -0.5,10.8333 -0.5,6.5C 1.64005,3.02275 4.64005,0.689416 8.5,-0.5 Z"/></g>
<g><path style="opacity:0.439" fill="#fee1ab" d="M 109.5,4.5 C 112.625,3.52056 115.958,3.18723 119.5,3.5C 119.5,5.16667 119.5,6.83333 119.5,8.5C 118.167,8.5 116.833,8.5 115.5,8.5C 115.5,8.16667 115.5,7.83333 115.5,7.5C 116.5,7.5 117.5,7.5 118.5,7.5C 118.5,6.5 118.5,5.5 118.5,4.5C 115.5,4.5 112.5,4.5 109.5,4.5 Z"/></g>
<g><path style="opacity:0.431" fill="#fedfa7" d="M 49.5,4.5 C 48.1667,4.5 46.8333,4.5 45.5,4.5C 45.5,5.5 45.5,6.5 45.5,7.5C 44.7321,6.73747 44.2321,5.73747 44,4.5C 43.3333,13.5 43.3333,22.5 44,31.5C 44.21,29.9419 44.71,28.6085 45.5,27.5C 47.2915,27.634 48.9582,27.3007 50.5,26.5C 49.4479,28.256 47.7812,28.9227 45.5,28.5C 45.5,29.5 45.5,30.5 45.5,31.5C 46.8333,31.5 48.1667,31.5 49.5,31.5C 47.3926,32.4682 45.0593,32.8016 42.5,32.5C 42.5,30.1667 42.5,27.8333 42.5,25.5C 42.5,24.1667 42.5,22.8333 42.5,21.5C 42.5,15.5 42.5,9.5 42.5,3.5C 45.0593,3.19845 47.3926,3.53178 49.5,4.5 Z"/></g>
<g><path style="opacity:1" fill="#fffcf8" d="M 55.5,3.5 C 56.8271,7.951 57.4937,12.7843 57.5,18C 57.1667,22.8333 56.8333,27.6667 56.5,32.5C 55.5016,22.8563 55.1682,13.1896 55.5,3.5 Z"/></g>
<g><path style="opacity:0.431" fill="#fedea4" d="M 63.5,4.5 C 62.1739,8.61389 61.5073,13.1139 61.5,18C 61.5009,22.6795 61.8342,27.1795 62.5,31.5C 62.8333,31.5 63.1667,31.5 63.5,31.5C 62.791,32.404 61.791,32.7373 60.5,32.5C 60.5,22.8333 60.5,13.1667 60.5,3.5C 61.791,3.26269 62.791,3.59603 63.5,4.5 Z"/></g>
<g><path style="opacity:1" fill="#fffbf5" d="M 63.5,4.5 C 64.2341,5.70792 64.5674,7.04125 64.5,8.5C 63.7321,9.26253 63.2321,10.2625 63,11.5C 62.5004,18.1583 62.3337,24.825 62.5,31.5C 61.8342,27.1795 61.5009,22.6795 61.5,18C 61.5073,13.1139 62.1739,8.61389 63.5,4.5 Z"/></g>
<g><path style="opacity:1" fill="#fffcf8" d="M 69.5,31.5 C 70.6267,28.1427 70.6267,24.8094 69.5,21.5C 69.1707,15.4632 69.5041,9.46325 70.5,3.5C 71.8333,13.1667 71.8333,22.8333 70.5,32.5C 69.8933,32.3764 69.56,32.0431 69.5,31.5 Z"/></g>
<g><path style="opacity:1" fill="#fff2db" d="M 77.5,3.5 C 79.9032,3.39297 81.7365,4.39297 83,6.5C 85,14.1667 85,21.8333 83,29.5C 80.2841,33.4759 77.6174,33.4759 75,29.5C 73.456,22.9161 73.1227,16.2494 74,9.5C 74.4238,6.97457 75.5905,4.97457 77.5,3.5 Z M 77.5,8.5 C 79.1238,8.36007 80.2904,9.02674 81,10.5C 81.6667,15.5 81.6667,20.5 81,25.5C 79.6667,28.1667 78.3333,28.1667 77,25.5C 76.2599,19.7821 76.4265,14.1154 77.5,8.5 Z"/></g>
<g><path style="opacity:1" fill="#fff3de" d="M 90.5,17.5 C 92.1667,17.5 93.8333,17.5 95.5,17.5C 95.5,19.8333 95.5,22.1667 95.5,24.5C 96.0414,27.6516 95.0414,30.1516 92.5,32C 90.5355,32.624 88.8689,32.124 87.5,30.5C 84.8333,22.1667 84.8333,13.8333 87.5,5.5C 90.8652,2.56293 93.3652,3.2296 95,7.5C 95.2511,9.43298 95.7511,11.2663 96.5,13C 95.365,13.7494 94.365,13.5827 93.5,12.5C 92.9744,10.7697 91.9744,9.43634 90.5,8.5C 89.8076,9.02527 89.3076,9.69194 89,10.5C 88.3333,15.5 88.3333,20.5 89,25.5C 89.8261,27.4054 90.9928,27.7388 92.5,26.5C 93.3094,24.9291 93.6427,23.2624 93.5,21.5C 92.5,21.5 91.5,21.5 90.5,21.5C 90.5,20.1667 90.5,18.8333 90.5,17.5 Z"/></g>
<g><path style="opacity:1" fill="#fff3df" d="M 104.5,7.5 C 105.804,11.3597 106.471,15.3597 106.5,19.5C 106.649,20.552 106.483,21.552 106,22.5C 105.768,21.2625 105.268,20.2625 104.5,19.5C 103.79,17.2537 103.29,14.9204 103,12.5C 102.174,15.7928 101.674,19.1262 101.5,22.5C 101.167,22.5 100.833,22.5 100.5,22.5C 99.5655,21.4324 99.2322,20.099 99.5,18.5C 99.5291,14.3597 100.196,10.3597 101.5,6.5C 102.222,6.08247 102.722,5.4158 103,4.5C 103.232,5.73747 103.732,6.73747 104.5,7.5 Z M 104.5,19.5 C 104.5,20.5 104.5,21.5 104.5,22.5C 103.5,22.5 102.5,22.5 101.5,22.5C 101.674,19.1262 102.174,15.7928 103,12.5C 103.29,14.9204 103.79,17.2537 104.5,19.5 Z"/></g>
<g><path style="opacity:1" fill="#fefffe" d="M 109.5,4.5 C 112.5,4.5 115.5,4.5 118.5,4.5C 118.5,5.5 118.5,6.5 118.5,7.5C 117.5,7.5 116.5,7.5 115.5,7.5C 113.741,7.04607 111.741,7.04607 109.5,7.5C 109.5,6.5 109.5,5.5 109.5,4.5 Z"/></g>
<g><path style="opacity:1" fill="#fff1da" d="M 123.5,3.5 C 125.903,3.39297 127.736,4.39297 129,6.5C 131,14.1667 131,21.8333 129,29.5C 126.284,33.4759 123.617,33.4759 121,29.5C 119.456,22.9161 119.123,16.2494 120,9.5C 120.424,6.97457 121.59,4.97457 123.5,3.5 Z M 123.5,8.5 C 124.5,8.5 125.5,8.5 126.5,8.5C 127.833,14.8333 127.833,21.1667 126.5,27.5C 124.876,27.6399 123.71,26.9733 123,25.5C 122.26,19.7821 122.427,14.1154 123.5,8.5 Z"/></g>
<g><path style="opacity:0.431" fill="#fedfa5" d="M 139.5,5.5 C 137.585,5.21552 135.919,5.54885 134.5,6.5C 134.167,6.5 133.833,6.5 133.5,6.5C 132.751,8.92979 132.418,12.7631 132.5,18C 132.507,22.8861 133.174,27.3861 134.5,31.5C 133.791,32.404 132.791,32.7373 131.5,32.5C 131.5,22.8333 131.5,13.1667 131.5,3.5C 134.373,3.80233 137.039,4.46899 139.5,5.5 Z"/></g>
<g><path style="opacity:0.859" fill="#fee8bf" d="M 104.5,7.5 C 103.732,6.73747 103.232,5.73747 103,4.5C 102.722,5.4158 102.222,6.08247 101.5,6.5C 101.5,5.5 101.5,4.5 101.5,3.5C 102.5,3.5 103.5,3.5 104.5,3.5C 104.5,4.83333 104.5,6.16667 104.5,7.5 Z"/></g>
<g><path style="opacity:0.937" fill="#fff2db" d="M 45.5,7.5 C 47.099,7.23219 48.4324,7.56552 49.5,8.5C 48.1667,8.5 46.8333,8.5 45.5,8.5C 45.5,10.8333 45.5,13.1667 45.5,15.5C 45.5,16.8333 45.5,18.1667 45.5,19.5C 45.5,22.1667 45.5,24.8333 45.5,27.5C 44.71,28.6085 44.21,29.9419 44,31.5C 43.3333,22.5 43.3333,13.5 44,4.5C 44.2321,5.73747 44.7321,6.73747 45.5,7.5 Z"/></g>
<g><path style="opacity:0.749" fill="#fee8bf" d="M 115.5,7.5 C 114.167,7.83333 114.167,8.16667 115.5,8.5C 114.833,39.1667 114.167,39.1667 113.5,8.5C 111.901,8.76781 110.568,8.43448 109.5,7.5C 111.741,7.04607 113.741,7.04607 115.5,7.5 Z"/></g>
<g><path style="opacity:1" fill="#fff2da" d="M 64.5,8.5 C 66.0137,12.8849 67.6804,17.2182 69.5,21.5C 70.6267,24.8094 70.6267,28.1427 69.5,31.5C 67.6031,26.3128 65.7698,20.9795 64,15.5C 63.5006,20.8229 63.334,26.1563 63.5,31.5C 63.1667,31.5 62.8333,31.5 62.5,31.5C 62.3337,24.825 62.5004,18.1583 63,11.5C 63.2321,10.2625 63.7321,9.26253 64.5,8.5 Z"/></g>
<g><path style="opacity:1" fill="#fff6e6" d="M 49.5,4.5 C 50.4959,4.41423 51.3292,4.74756 52,5.5C 54.09,9.77906 53.9233,13.9457 51.5,18C 53.9812,22.0225 54.1479,26.1892 52,30.5C 51.3292,31.2524 50.4959,31.5858 49.5,31.5C 48.1667,31.5 46.8333,31.5 45.5,31.5C 45.5,30.5 45.5,29.5 45.5,28.5C 47.7812,28.9227 49.4479,28.256 50.5,26.5C 50.6621,24.4727 50.4955,22.4727 50,20.5C 48.6439,19.6198 47.1439,19.2865 45.5,19.5C 45.5,18.1667 45.5,16.8333 45.5,15.5C 50.4096,15.4236 51.7429,13.0902 49.5,8.5C 48.4324,7.56552 47.099,7.23219 45.5,7.5C 45.5,6.5 45.5,5.5 45.5,4.5C 46.8333,4.5 48.1667,4.5 49.5,4.5 Z"/></g>
<g><path style="opacity:0.902" fill="#fff2da" d="M 133.5,6.5 C 133.5,7.16667 133.833,7.5 134.5,7.5C 134.5,7.16667 134.5,6.83333 134.5,6.5C 135.919,5.54885 137.585,5.21552 139.5,5.5C 141.017,7.4621 141.684,9.79543 141.5,12.5C 141.647,15.2534 140.98,17.7534 139.5,20C 140.713,22.6865 141.38,25.5198 141.5,28.5C 141.633,31.925 140.967,32.2583 139.5,29.5C 138.362,26.2807 137.529,22.9474 137,19.5C 136.586,19.9574 136.086,20.2907 135.5,20.5C 134.511,24.1073 134.177,27.774 134.5,31.5C 133.174,27.3861 132.507,22.8861 132.5,18C 132.418,12.7631 132.751,8.92979 133.5,6.5 Z M 134.5,7.5 C 138.24,6.74147 139.907,8.24147 139.5,12C 139.729,15.6028 138.062,17.4362 134.5,17.5C 134.5,14.1667 134.5,10.8333 134.5,7.5 Z"/></g>
<g><path style="opacity:0.431" fill="#fee0a9" d="M 90.5,17.5 C 92.2646,16.5386 94.2646,16.2053 96.5,16.5C 96.8064,19.3854 96.4731,22.0521 95.5,24.5C 95.5,22.1667 95.5,19.8333 95.5,17.5C 93.8333,17.5 92.1667,17.5 90.5,17.5 Z"/></g>
<g><path style="opacity:1" fill="#fff7e9" d="M 98.5,23.5 C 99.4511,24.9187 99.7845,26.5853 99.5,28.5C 99.5,29.5 99.5,30.5 99.5,31.5C 98.1667,31.5 97.5,30.8333 97.5,29.5C 97.2053,27.2646 97.5386,25.2646 98.5,23.5 Z"/></g>
<g><path style="opacity:0.81" fill="#fee5b8" d="M 99.5,18.5 C 99.2322,20.099 99.5655,21.4324 100.5,22.5C 100.791,23.6491 101.624,24.3158 103,24.5C 105.359,24.676 105.859,24.0093 104.5,22.5C 104.5,21.5 104.5,20.5 104.5,19.5C 105.268,20.2625 105.768,21.2625 106,22.5C 106.483,21.552 106.649,20.552 106.5,19.5C 107.451,20.9187 107.784,22.5853 107.5,24.5C 106.539,26.2646 106.205,28.2646 106.5,30.5C 105.549,29.0813 105.216,27.4147 105.5,25.5C 103.833,25.5 102.167,25.5 100.5,25.5C 100.737,26.791 100.404,27.791 99.5,28.5C 99.7845,26.5853 99.4511,24.9187 98.5,23.5C 98.2155,21.5853 98.5489,19.9187 99.5,18.5 Z"/></g>
<g><path style="opacity:1" fill="#fffefc" d="M 100.5,22.5 C 100.833,22.5 101.167,22.5 101.5,22.5C 102.5,22.5 103.5,22.5 104.5,22.5C 105.859,24.0093 105.359,24.676 103,24.5C 101.624,24.3158 100.791,23.6491 100.5,22.5 Z"/></g>
<g><path style="opacity:1" fill="#fff8ed" d="M 107.5,24.5 C 108.461,26.2646 108.795,28.2646 108.5,30.5C 108.158,31.3382 107.492,31.6716 106.5,31.5C 106.5,31.1667 106.5,30.8333 106.5,30.5C 106.205,28.2646 106.539,26.2646 107.5,24.5 Z"/></g>
<g><path style="opacity:0.431" fill="#fedda2" d="M 97.5,29.5 C 97.5,30.8333 98.1667,31.5 99.5,31.5C 98.791,32.404 97.791,32.7373 96.5,32.5C 96.2627,31.209 96.596,30.209 97.5,29.5 Z"/></g>
<g><path style="opacity:0.114" fill="#fedc9d" d="M 108.5,30.5 C 109.885,31.3023 109.718,31.9689 108,32.5C 107.235,32.4301 106.735,32.0967 106.5,31.5C 107.492,31.6716 108.158,31.3382 108.5,30.5 Z"/></g>
<g><path style="opacity:0.431" fill="#fee1ab" d="M 141.5,28.5 C 142.434,29.5676 142.768,30.901 142.5,32.5C 141.5,32.5 140.5,32.5 139.5,32.5C 139.5,31.5 139.5,30.5 139.5,29.5C 140.967,32.2583 141.633,31.925 141.5,28.5 Z"/></g>
</svg>
